<?xml version="1.0" encoding="UTF-8"?>
<svg id="_レイヤー_1" data-name="レイヤー_1" xmlns="http://www.w3.org/2000/svg" version="1.1" viewBox="0 0 254.2677165 42.8031496">
  <!-- Generator: Adobe Illustrator 30.1.0, SVG Export Plug-In . SVG Version: 2.1.1 Build 136)  -->
  <defs>
    <style>
      .st0 {
        fill: #59a8a5;
      }
    </style>
  </defs>
  <path class="st0" d="M6.0860067,41.9240357H.0957723V.8796021h11.8696289c9.8173828,0,14.4765625,5.1025391,14.4765625,12.4243164,0,7.3212891-4.6591797,12.4243164-14.4765625,12.4243164h-5.8793945v16.1958008ZM6.0860067,20.237024h5.8793945c6.8222656,0,8.4858398-3.8828125,8.4858398-6.9331055,0-3.0507812-1.6635742-6.9335938-8.4858398-6.9335938h-5.8793945v13.8666992Z"/>
  <path class="st0" d="M29.402413,30.0133912c0-7.2241211,5.890625-12.7709961,12.7275391-12.7709961,6.7509766,0,12.6416016,5.375,12.6416016,12.6850586,0,7.8256836-6.0195312,12.7705078-12.6416016,12.7705078-7.0947266,0-12.7275391-5.8476562-12.7275391-12.6845703ZM49.0528036,30.05636c0-4.3432617-3.3540039-7.5678711-6.9228516-7.5678711-2.9667969,0-7.0087891,2.5366211-7.0087891,7.5249023,0,4.5146484,3.3969727,7.4389648,7.0087891,7.4389648,4.1708984,0,6.9228516-3.6123047,6.9228516-7.3959961Z"/>
  <path class="st0" d="M60.746163,18.0592896h5.2460938v2.0209961h.0859375c.4731445-.7739258,2.1069336-2.8378906,6.2348633-2.8378906,1.2900391,0,4.644043.3012695,6.8798828,3.7412109,2.4941406-3.5693359,6.0200195-3.7412109,7.6967773-3.7412109,4.6870117,0,7.0092773,2.4941406,7.8691406,3.6982422.9458008,1.246582,1.8056641,3.5258789,1.8056641,7.0517578v13.9316406h-5.71875v-13.2436523c0-1.3759766,0-6.1918945-4.5146484-6.1918945-1.5913086,0-3.1391602.8598633-3.9560547,2.2358398-.9033203,1.4189453-.8598633,3.7836914-.8598633,5.2890625v11.9106445h-5.7192383v-13.2436523c0-3.2680664-1.2470703-6.1918945-4.7729492-6.1918945-4.5576172,0-4.5576172,4.987793-4.5576172,7.5249023v11.9106445h-5.7192383v-23.8647461Z"/>
  <path class="st0" d="M102.4956747,30.0133912c0-7.2241211,5.890625-12.7709961,12.7275391-12.7709961,6.7509766,0,12.6416016,5.375,12.6416016,12.6850586,0,7.8256836-6.0195312,12.7705078-12.6416016,12.7705078-7.0947266,0-12.7275391-5.8476562-12.7275391-12.6845703ZM122.1460653,30.05636c0-4.3432617-3.3540039-7.5678711-6.9228516-7.5678711-2.9667969,0-7.0087891,2.5366211-7.0087891,7.5249023,0,4.5146484,3.3969727,7.4389648,7.0087891,7.4389648,4.1708984,0,6.9228516-3.6123047,6.9228516-7.3959961Z"/>
  <path class="st0" d="M167.480538,11.3625123c-1.2197266-1.3867188-4.8808594-5.7685547-11.5361328-5.7685547-8.5419922,0-15.253418,7.0439453-15.253418,15.6967773,0,8.8193359,7.1000977,15.9189453,15.1420898,15.9189453,4.3261719,0,8.375-2.1079102,11.2041016-5.4360352h7.3769531c-4.5488281,8.0424805-12.2578125,10.9267578-18.6367187,10.9267578-11.6474609,0-21.0766602-9.8173828-21.0766602-21.4648438C134.7007528,9.2546021,144.3516317.1027467,155.833077.1027467c3.1064453,0,8.0976562.7768555,12.5351562,3.9936523,3.7158203,2.6625977,5.2695312,5.4355469,6.3232422,7.2661133h-7.2109375Z"/>
  <path class="st0" d="M205.9307333,41.9240357h-5.2460938v-2.9667969c-1.8056641,2.1499023-5.3320312,3.7407227-8.3417969,3.7407227-6.1484375,0-11.609375-4.9018555-11.609375-12.8569336,0-7.3095703,5.3320312-12.5986328,11.9541016-12.5986328,4.8583984,0,7.7392578,3.4829102,7.9111328,3.8271484h.0859375v-3.0102539h5.2460938v23.8647461ZM193.5469442,22.4884889c-4.6865234,0-7.0947266,4.0419922-7.0947266,7.6108398,0,4.0419922,3.0097656,7.3530273,7.0947266,7.3530273,3.9560547,0,6.9658203-3.0961914,6.9658203-7.5249023,0-4.9453125-3.5683594-7.4389648-6.9658203-7.4389648Z"/>
  <path class="st0" d="M213.8828817,18.0592896h5.2460938v2.1069336h.0859375c1.0751953-1.5478516,2.1494141-2.9238281,5.1171875-2.9238281h.4726562v5.546875c-5.203125.2148438-5.203125,4.2998047-5.203125,5.71875v13.4160156h-5.71875v-23.8647461Z"/>
  <path class="st0" d="M235.2949911,32.5500123c.2587891,1.5483398,2.4941406,4.9023438,6.5791016,4.9023438,2.5371094,0,4.4287109-1.0751953,5.5039062-3.0532227h6.0205078c-1.3769531,4.2998047-5.9345703,8.2988281-11.5244141,8.2988281-7.0947266,0-12.5986328-5.6757812-12.5986328-12.6416016,0-6.7509766,5.203125-12.9428711,12.5556641-12.9428711,7.5683594,0,12.3408203,6.5356445,12.3408203,12.5556641,0,1.1181641-.171875,2.1069336-.34375,2.8808594h-18.5332031ZM248.324288,27.9494264c-.6455078-3.8271484-3.6123047-5.5898438-6.4501953-5.5898438-2.1064453,0-5.6757812,1.1606445-6.7509766,5.5898438h13.2011719Z"/>
</svg>