<svg xmlns="http://www.w3.org/2000/svg" viewBox="0 0 280 200">
  <!-- Background -->
  <rect width="280" height="200" rx="12" fill="#f8fafa"/>

  <!-- Settings card -->
  <rect x="40" y="20" width="200" height="160" rx="12" fill="#ffffff" stroke="#e5e7eb" stroke-width="1.5"/>

  <!-- Header -->
  <text x="140" y="45" text-anchor="middle" font-family="Inter, sans-serif" font-size="11" fill="#1f2937" font-weight="700">Settings</text>
  <line x1="55" y1="55" x2="225" y2="55" stroke="#f3f4f6" stroke-width="1"/>

  <!-- Row 1: Timer Duration -->
  <g transform="translate(65, 65)">
    <!-- Clock icon -->
    <circle cx="10" cy="12" r="9" fill="#0abab5" opacity="0.12"/>
    <circle cx="10" cy="12" r="6" fill="none" stroke="#0abab5" stroke-width="1.3"/>
    <line x1="10" y1="12" x2="10" y2="9" stroke="#0abab5" stroke-width="1.2" stroke-linecap="round"/>
    <line x1="10" y1="12" x2="13" y2="12" stroke="#0abab5" stroke-width="1.2" stroke-linecap="round"/>
    <!-- Label -->
    <text x="28" y="10" font-family="Inter, sans-serif" font-size="8" fill="#374151" font-weight="600">Focus Duration</text>
    <text x="28" y="20" font-family="Inter, sans-serif" font-size="7" fill="#9ca3af">Pomodoro timer length</text>
    <!-- Value control -->
    <rect x="120" y="3" width="45" height="18" rx="9" fill="#f3f4f6"/>
    <text x="142" y="15" text-anchor="middle" font-family="Inter, sans-serif" font-size="8" fill="#374151" font-weight="600">25 min</text>
  </g>

  <!-- Divider -->
  <line x1="55" y1="97" x2="225" y2="97" stroke="#f3f4f6" stroke-width="1"/>

  <!-- Row 2: Sound -->
  <g transform="translate(65, 105)">
    <!-- Bell icon -->
    <circle cx="10" cy="12" r="9" fill="#f59e0b" opacity="0.12"/>
    <path d="M6,14 Q6,7 10,6 Q14,7 14,14 L6,14Z" fill="none" stroke="#f59e0b" stroke-width="1.2" stroke-linejoin="round"/>
    <line x1="10" y1="5" x2="10" y2="4" stroke="#f59e0b" stroke-width="1" stroke-linecap="round"/>
    <path d="M8,15 Q10,17 12,15" fill="none" stroke="#f59e0b" stroke-width="0.8"/>
    <!-- Label -->
    <text x="28" y="10" font-family="Inter, sans-serif" font-size="8" fill="#374151" font-weight="600">Alarm Sound</text>
    <text x="28" y="20" font-family="Inter, sans-serif" font-size="7" fill="#9ca3af">End of session alert</text>
    <!-- Value -->
    <rect x="120" y="3" width="45" height="18" rx="9" fill="#f3f4f6"/>
    <text x="142" y="15" text-anchor="middle" font-family="Inter, sans-serif" font-size="8" fill="#374151" font-weight="600">Chime</text>
  </g>

  <!-- Divider -->
  <line x1="55" y1="137" x2="225" y2="137" stroke="#f3f4f6" stroke-width="1"/>

  <!-- Row 3: Dark Mode -->
  <g transform="translate(65, 145)">
    <!-- Moon icon -->
    <circle cx="10" cy="12" r="9" fill="#8b5cf6" opacity="0.12"/>
    <path d="M7,12 Q7,7 12,6 Q9,8 9,12 Q9,16 13,17 Q8,17 7,12Z" fill="#8b5cf6"/>
    <!-- Label -->
    <text x="28" y="10" font-family="Inter, sans-serif" font-size="8" fill="#374151" font-weight="600">Dark Mode</text>
    <text x="28" y="20" font-family="Inter, sans-serif" font-size="7" fill="#9ca3af">Reduce eye strain</text>
    <!-- Toggle switch (ON) -->
    <rect x="125" y="5" width="32" height="16" rx="8" fill="#0abab5"/>
    <circle cx="148" cy="13" r="5.5" fill="#ffffff"/>
  </g>
</svg>