<svg xmlns="http://www.w3.org/2000/svg" viewBox="0 0 280 200">
  <!-- Background -->
  <rect width="280" height="200" rx="12" fill="#fafafa"/>

  <!-- Chart container -->
  <rect x="25" y="15" width="235" height="165" rx="8" fill="#ffffff" stroke="#e5e7eb" stroke-width="1"/>

  <!-- Title -->
  <text x="50" y="35" font-family="Inter, sans-serif" font-size="10" fill="#374151" font-weight="700">Weekly Overview</text>
  <!-- Badge -->
  <rect x="190" y="25" width="55" height="16" rx="8" fill="#0abab5" opacity="0.12"/>
  <text x="217" y="36" text-anchor="middle" font-family="Inter, sans-serif" font-size="7" fill="#0abab5" font-weight="600">This Week</text>

  <!-- Y-axis lines -->
  <line x1="50" y1="55" x2="240" y2="55" stroke="#f3f4f6" stroke-width="1"/>
  <line x1="50" y1="75" x2="240" y2="75" stroke="#f3f4f6" stroke-width="1"/>
  <line x1="50" y1="95" x2="240" y2="95" stroke="#f3f4f6" stroke-width="1"/>
  <line x1="50" y1="115" x2="240" y2="115" stroke="#f3f4f6" stroke-width="1"/>
  <line x1="50" y1="135" x2="240" y2="135" stroke="#f3f4f6" stroke-width="1"/>

  <!-- Y-axis labels -->
  <text x="42" y="58" text-anchor="end" font-family="Inter, sans-serif" font-size="6" fill="#9ca3af">4h</text>
  <text x="42" y="78" text-anchor="end" font-family="Inter, sans-serif" font-size="6" fill="#9ca3af">3h</text>
  <text x="42" y="98" text-anchor="end" font-family="Inter, sans-serif" font-size="6" fill="#9ca3af">2h</text>
  <text x="42" y="118" text-anchor="end" font-family="Inter, sans-serif" font-size="6" fill="#9ca3af">1h</text>
  <text x="42" y="138" text-anchor="end" font-family="Inter, sans-serif" font-size="6" fill="#9ca3af">0</text>

  <!-- X-axis baseline -->
  <line x1="50" y1="135" x2="240" y2="135" stroke="#d1d5db" stroke-width="1"/>

  <!-- Bar group width: ~25, spacing: ~27 -->
  <!-- Mon: 3 segments, total height 60 -->
  <rect x="58" y="95" width="18" height="40" rx="2" fill="#0abab5"/>
  <rect x="58" y="85" width="18" height="10" rx="0" fill="#f59e0b"/>
  <rect x="58" y="75" width="18" height="10" rx="2" fill="#8b5cf6"/>

  <!-- Tue: 2 segments, total height 50 -->
  <rect x="85" y="100" width="18" height="35" rx="2" fill="#0abab5"/>
  <rect x="85" y="92" width="18" height="8" rx="0" fill="#f59e0b"/>
  <rect x="85" y="85" width="18" height="7" rx="2" fill="#8b5cf6"/>

  <!-- Wed: 3 segments, total height 70 -->
  <rect x="112" y="85" width="18" height="50" rx="2" fill="#0abab5"/>
  <rect x="112" y="73" width="18" height="12" rx="0" fill="#f59e0b"/>
  <rect x="112" y="65" width="18" height="8" rx="2" fill="#8b5cf6"/>

  <!-- Thu: 2 segments, total height 40 -->
  <rect x="139" y="108" width="18" height="27" rx="2" fill="#0abab5"/>
  <rect x="139" y="100" width="18" height="8" rx="0" fill="#f59e0b"/>
  <rect x="139" y="95" width="18" height="5" rx="2" fill="#8b5cf6"/>

  <!-- Fri: 3 segments, total height 65 -->
  <rect x="166" y="90" width="18" height="45" rx="2" fill="#0abab5"/>
  <rect x="166" y="78" width="18" height="12" rx="0" fill="#f59e0b"/>
  <rect x="166" y="70" width="18" height="8" rx="2" fill="#8b5cf6"/>

  <!-- Sat: small, total height 25 -->
  <rect x="193" y="118" width="18" height="17" rx="2" fill="#0abab5"/>
  <rect x="193" y="113" width="18" height="5" rx="0" fill="#f59e0b"/>
  <rect x="193" y="110" width="18" height="3" rx="2" fill="#8b5cf6"/>

  <!-- Sun: medium, total height 45 -->
  <rect x="220" y="103" width="18" height="32" rx="2" fill="#0abab5"/>
  <rect x="220" y="95" width="18" height="8" rx="0" fill="#f59e0b"/>
  <rect x="220" y="90" width="18" height="5" rx="2" fill="#8b5cf6"/>

  <!-- X-axis labels -->
  <text x="67" y="148" text-anchor="middle" font-family="Inter, sans-serif" font-size="7" fill="#6b7280">Mon</text>
  <text x="94" y="148" text-anchor="middle" font-family="Inter, sans-serif" font-size="7" fill="#6b7280">Tue</text>
  <text x="121" y="148" text-anchor="middle" font-family="Inter, sans-serif" font-size="7" fill="#6b7280">Wed</text>
  <text x="148" y="148" text-anchor="middle" font-family="Inter, sans-serif" font-size="7" fill="#6b7280">Thu</text>
  <text x="175" y="148" text-anchor="middle" font-family="Inter, sans-serif" font-size="7" fill="#6b7280">Fri</text>
  <text x="202" y="148" text-anchor="middle" font-family="Inter, sans-serif" font-size="7" fill="#6b7280">Sat</text>
  <text x="229" y="148" text-anchor="middle" font-family="Inter, sans-serif" font-size="7" fill="#6b7280">Sun</text>

  <!-- Legend -->
  <rect x="60" y="160" width="8" height="8" rx="2" fill="#0abab5"/>
  <text x="72" y="167" font-family="Inter, sans-serif" font-size="6.5" fill="#6b7280">Focus</text>
  <rect x="105" y="160" width="8" height="8" rx="2" fill="#f59e0b"/>
  <text x="117" y="167" font-family="Inter, sans-serif" font-size="6.5" fill="#6b7280">Short Break</text>
  <rect x="170" y="160" width="8" height="8" rx="2" fill="#8b5cf6"/>
  <text x="182" y="167" font-family="Inter, sans-serif" font-size="6.5" fill="#6b7280">Long Break</text>
</svg>