<svg xmlns="http://www.w3.org/2000/svg" viewBox="0 0 280 200">
  <!-- Background -->
  <rect width="280" height="200" rx="12" fill="#151c2c"/>

  <!-- Title -->
  <text x="140" y="35" text-anchor="middle" font-family="Inter, sans-serif" font-size="10" fill="#9ca3af" font-weight="600">Timer Controls</text>

  <!-- Play button (main, larger) -->
  <circle cx="90" cy="105" r="32" fill="#0abab5"/>
  <circle cx="90" cy="105" r="35" fill="none" stroke="#0abab5" stroke-width="1" opacity="0.3"/>
  <polygon points="82,89 82,121 108,105" fill="#ffffff"/>
  <text x="90" y="152" text-anchor="middle" font-family="Inter, sans-serif" font-size="8" fill="#0abab5" font-weight="600">Start</text>

  <!-- Pause button -->
  <circle cx="175" cy="95" r="26" fill="#1f2937" stroke="#374151" stroke-width="1.5"/>
  <rect x="168" y="84" width="4.5" height="22" rx="2" fill="#9ca3af"/>
  <rect x="177" y="84" width="4.5" height="22" rx="2" fill="#9ca3af"/>
  <text x="175" y="135" text-anchor="middle" font-family="Inter, sans-serif" font-size="8" fill="#9ca3af" font-weight="600">Pause</text>

  <!-- Reset button -->
  <circle cx="240" cy="95" r="22" fill="#1f2937" stroke="#374151" stroke-width="1.5"/>
  <!-- Reset circular arrow -->
  <path d="M230,95 A10,10 0 1,1 240,85" fill="none" stroke="#9ca3af" stroke-width="2.5" stroke-linecap="round"/>
  <polygon points="240,82 237,88 243,88" fill="#9ca3af"/>
  <text x="240" y="130" text-anchor="middle" font-family="Inter, sans-serif" font-size="8" fill="#9ca3af" font-weight="600">Reset</text>

  <!-- Decorative dots -->
  <circle cx="30" cy="170" r="3" fill="#0abab5" opacity="0.15"/>
  <circle cx="42" cy="175" r="2" fill="#0abab5" opacity="0.1"/>
  <circle cx="250" cy="170" r="3" fill="#0abab5" opacity="0.15"/>
  <circle cx="260" cy="165" r="2" fill="#0abab5" opacity="0.1"/>

  <!-- Hint text -->
  <text x="140" y="180" text-anchor="middle" font-family="Inter, sans-serif" font-size="7" fill="#6b7280">Tap to control your session</text>
</svg>